<svg xmlns="http://www.w3.org/2000/svg" version="1.1" xmlns:xlink="http://www.w3.org/1999/xlink" xmlns:svgjs="http://svgjs.dev/svgjs" width="1000" height="1000" viewBox="0 0 1000 1000"><rect width="1000" height="1000" fill="#ffffff"></rect><g transform="matrix(0.7,0,0,0.7,149.57575757575756,282.1265587044535)"><svg viewBox="0 0 396 247" data-background-color="#ffffff" preserveAspectRatio="xMidYMid meet" height="623" width="1000" xmlns="http://www.w3.org/2000/svg" xmlns:xlink="http://www.w3.org/1999/xlink"><g id="tight-bounds" transform="matrix(1,0,0,1,0.2400000000000091,-0.09999999999999432)"><svg viewBox="0 0 395.52 247.2" height="247.2" width="395.52"><g><svg></svg></g><g><svg viewBox="0 0 395.52 247.2" height="247.2" width="395.52"><g transform="matrix(1,0,0,1,75.54432,66.22211906493507)"><svg viewBox="0 0 244.43135999999998 114.75576187012983" height="114.75576187012983" width="244.43135999999998"><g><svg viewBox="0 0 244.43135999999998 114.75576187012983" height="114.75576187012983" width="244.43135999999998"><g><svg viewBox="0 0 244.43135999999998 114.75576187012983" height="114.75576187012983" width="244.43135999999998"><g><svg viewBox="0 0 244.43135999999998 114.75576187012983" height="114.75576187012983" width="244.43135999999998"><g id="textblocktransform"><svg viewBox="0 0 244.43135999999998 114.75576187012983" height="114.75576187012983" width="244.43135999999998" id="textblock"><g><svg viewBox="0 0 244.43135999999998 114.75576187012983" height="114.75576187012983" width="244.43135999999998"><g transform="matrix(1,0,0,1,0,0)"><svg width="244.43135999999998" viewBox="3.6500000953674316 -36.150001525878906 77 36.150001525878906" height="114.75576187012983" data-palette-color="#0080ff"><path d="M34.15-36.15L34.15 0 27.38 0 27.38-15.8 10.43-15.8 10.43 0 3.65 0 3.65-36.15 10.43-36.15 10.43-20.6 27.38-20.6 27.38-36.15 34.15-36.15ZM59.6-15L59.6-15Q60.02-14.2 60.39-13.34 60.75-12.48 61.1-11.6L61.1-11.6Q61.45-12.5 61.82-13.38 62.2-14.25 62.62-15.05L62.62-15.05 73.32-35.08Q73.52-35.45 73.74-35.68 73.95-35.9 74.21-36 74.47-36.1 74.8-36.13 75.12-36.15 75.57-36.15L75.57-36.15 80.65-36.15 80.65 0 74.72 0 74.72-23.35Q74.72-24 74.76-24.78 74.8-25.55 74.87-26.35L74.87-26.35 63.95-5.85Q63.57-5.15 62.97-4.76 62.37-4.38 61.57-4.38L61.57-4.38 60.65-4.38Q59.85-4.38 59.25-4.76 58.65-5.15 58.27-5.85L58.27-5.85 47.2-26.43Q47.3-25.6 47.34-24.81 47.37-24.03 47.37-23.35L47.37-23.35 47.37 0 41.45 0 41.45-36.15 46.52-36.15Q46.97-36.15 47.3-36.13 47.62-36.1 47.89-36 48.15-35.9 48.37-35.68 48.6-35.45 48.8-35.08L48.8-35.08 59.6-15Z" opacity="1" transform="matrix(1,0,0,1,0,0)" fill="#000000" class="wordmark-text-0" data-fill-palette-color="primary" id="text-0"></path></svg></g></svg></g></svg></g></svg></g><g></g></svg></g></svg></g></svg></g><g><path d="M109.433 39.131A122.216 122.216 0 0 1 286.087 39.131L275.738 39.131A111.867 111.867 0 0 0 119.782 39.131L109.433 39.131M109.433 208.069A122.216 122.216 0 0 0 286.087 208.069L275.738 208.069A111.867 111.867 0 0 1 119.782 208.069L109.433 208.069" fill="#000000" stroke="transparent" data-fill-palette-color="tertiary"></path></g></svg></g><defs></defs></svg><rect width="395.52" height="247.2" fill="none" stroke="none" visibility="hidden"></rect></g></svg></g></svg>